<svg width="194" height="37" viewBox="0 0 194 37" fill="none" xmlns="http://www.w3.org/2000/svg">
<path d="M0.189096 32.948L5.94968 32.562L2.73509 27.7662L0.189096 32.948ZM193.249 36.4997L190.725 31.307L187.49 36.089L193.249 36.4997ZM4.20131 30.8605C4.32594 30.7788 4.45058 30.6973 4.57522 30.6159L4.02857 29.7785C3.90335 29.8603 3.77814 29.9422 3.65295 30.0243L4.20131 30.8605ZM8.72808 27.9717C11.5506 26.22 14.3768 24.5584 17.2064 22.9868L16.7208 22.1126C13.8768 23.6922 11.0367 25.362 8.20076 27.122L8.72808 27.9717ZM21.543 20.6499C24.4825 19.1144 27.4255 17.6757 30.372 16.3333L29.9574 15.4233C26.9942 16.7733 24.035 18.22 21.08 19.7635L21.543 20.6499ZM34.8817 14.355C37.9359 13.0669 40.9936 11.8819 44.0546 10.7999L43.7213 9.85703C40.6413 10.9458 37.5652 12.138 34.4931 13.4336L34.8817 14.355ZM48.7115 9.23377C51.8618 8.22846 55.0155 7.3317 58.1723 6.54319L57.93 5.573C54.7521 6.36676 51.5778 7.26938 48.4075 8.28111L48.7115 9.23377ZM62.9618 5.4304C66.1827 4.73813 69.4069 4.15814 72.6339 3.69011L72.4904 2.70046C69.2408 3.17176 65.9945 3.75576 62.7517 4.45273L62.9618 5.4304ZM77.5102 3.0683C80.7751 2.70908 84.0429 2.46407 87.3134 2.33295L87.2733 1.33375C83.9796 1.4658 80.6887 1.71255 77.4008 2.0743L77.5102 3.0683ZM92.2271 2.22163C95.5003 2.20447 98.7762 2.30105 102.054 2.51108L102.118 1.51312C98.8172 1.30163 95.5183 1.20436 92.2218 1.22164L92.2271 2.22163ZM106.953 2.90912C110.198 3.22862 113.446 3.65902 116.696 4.20006L116.861 3.21363C113.589 2.66897 110.319 2.23563 107.051 1.91393L106.953 2.90912ZM121.534 5.08677C124.724 5.72523 127.917 6.47009 131.111 7.32108L131.368 6.35478C128.154 5.49849 124.942 4.74886 121.73 4.10621L121.534 5.08677ZM135.84 8.65823C138.953 9.58909 142.067 10.6206 145.182 11.7524L145.524 10.8125C142.391 9.67421 139.258 8.63666 136.127 7.70015L135.84 8.65823ZM149.783 13.4966C152.797 14.6869 155.813 15.971 158.829 17.3487L159.245 16.4391C156.213 15.0543 153.181 13.7633 150.15 12.5665L149.783 13.4966ZM163.286 19.4521C166.197 20.8705 169.109 22.3759 172.021 23.9682L172.501 23.0908C169.575 21.4912 166.649 19.9785 163.724 18.5532L163.286 19.4521ZM176.316 26.3792C179.123 27.9961 181.931 29.6937 184.738 31.4717L185.273 30.6269C182.454 28.8416 179.635 27.1367 176.815 25.5126L176.316 26.3792ZM188.872 34.1473C188.996 34.2296 189.121 34.3121 189.245 34.3948L189.798 33.5617C189.673 33.4787 189.548 33.3958 189.423 33.3132L188.872 34.1473Z" fill="#4E9525"/>
<rect y="27.7231" width="10" height="9" fill="white"/>
</svg>
