<svg width="58" height="74" viewBox="0 0 58 74" fill="none" xmlns="http://www.w3.org/2000/svg">
<path d="M55.6623 8.75965C47.4363 8.75965 39.4707 6.40161 32.6262 1.94044L30.4021 0.490834C29.6608 0.00777538 28.6949 0.00777538 27.9536 0.490834L25.7295 1.94044C18.8852 6.40161 10.9196 8.75965 2.69349 8.75965C1.47461 8.75965 0.48645 9.72577 0.48645 10.9174V35.5543C0.48645 52.8249 11.7724 68.2256 28.4801 73.6705C28.7065 73.7443 28.9422 73.7812 29.1779 73.7812C29.4136 73.7812 29.6493 73.7443 29.8758 73.6705C46.5732 68.229 57.8694 52.8342 57.8694 35.5542V10.9174C57.8694 9.72577 56.8812 8.75965 55.6623 8.75965ZM53.4553 35.5542C53.4553 50.7935 43.731 64.2798 29.1779 69.3412C14.6249 64.2798 4.90052 50.7935 4.90052 35.5542V13.0239C13.2146 12.6371 21.2201 10.0664 28.1781 5.5313L29.1779 4.87965L30.1777 5.5313C37.1358 10.0666 45.1413 12.6371 53.4553 13.0239V35.5542Z" fill="white"/>
<g clip-path="url(#clip0)">
<path d="M43.127 38.5282H38.958V34.6109H43.127C43.7535 34.6109 44.2612 34.115 44.2612 33.5024C44.2612 32.8897 43.7535 32.3935 43.127 32.3935H38.958V26.958C38.958 26.1646 38.7977 25.5822 38.4815 25.2274C38.1811 24.8899 37.7861 24.7329 37.239 24.7329C36.717 24.7329 36.3369 24.8889 36.0422 25.2242C35.7298 25.5794 35.5712 26.1628 35.5712 26.9584V32.3941H27.7291L24.3948 27.4611C24.1094 27.0208 23.8411 26.6084 23.5805 26.2126C23.3459 25.8561 23.1171 25.5658 22.901 25.3491C22.7096 25.1572 22.4916 25.0087 22.2366 24.8946C21.996 24.7872 21.69 24.7333 21.3281 24.7333C20.8665 24.7333 20.4475 24.8569 20.0462 25.1109C19.6491 25.3622 19.3747 25.6729 19.207 26.0607C19.0599 26.4293 18.982 26.9941 18.982 27.7232V32.3938H14.8545C14.2282 32.3938 13.7207 32.8901 13.7207 33.5027C13.7207 34.1153 14.2282 34.6112 14.8545 34.6112H18.9821V38.529H14.8545C14.2282 38.529 13.7207 39.0251 13.7207 39.6379C13.7207 40.2503 14.2282 40.746 14.8545 40.746H18.9821V46.952C18.9821 47.722 19.1476 48.2984 19.4754 48.6647C19.7871 49.014 20.1823 49.1762 20.719 49.1762C21.2368 49.1762 21.6289 49.0133 21.9541 48.6634C22.2871 48.3049 22.4555 47.7288 22.4555 46.952V40.746H29.5517L33.3918 46.5031C33.6589 46.8837 33.9346 47.2678 34.2095 47.6445C34.4576 47.9827 34.7283 48.2807 35.0138 48.5296C35.271 48.7547 35.5467 48.9197 35.8333 49.0204C36.1283 49.1242 36.4731 49.1769 36.8558 49.1769C37.8943 49.1769 38.9579 48.8661 38.9579 46.5608V40.746H43.1269C43.7533 40.746 44.2611 40.2495 44.2611 39.6371C44.2612 39.0247 43.7535 38.5282 43.127 38.5282ZM35.5711 34.6109V38.5282H31.8761L29.2286 34.6109H35.5711ZM22.4556 30.1097L23.9794 32.3935H22.4556V30.1097ZM22.4556 38.5282V34.6109H25.4589L28.0723 38.5282H22.4556ZM35.5711 43.9959L33.3752 40.746H35.5711V43.9959Z" fill="white"/>
</g>
<defs>
<clipPath id="clip0">
<rect width="30.5405" height="29.8593" fill="white" transform="translate(13.7207 22.0253)"/>
</clipPath>
</defs>
</svg>
