<svg width="68" height="67" viewBox="0 0 68 67" fill="none" xmlns="http://www.w3.org/2000/svg">
<path d="M48.1945 2.81954L20.2778 2.79163C17.207 2.79163 14.6945 5.30413 14.6945 8.37496V58.625C14.6945 61.6958 17.207 64.2083 20.2778 64.2083H48.1945C51.2653 64.2083 53.7778 61.6958 53.7778 58.625V8.37496C53.7778 5.30413 51.2653 2.81954 48.1945 2.81954ZM48.1945 58.625H20.2778V55.8333H48.1945V58.625ZM48.1945 50.25H20.2778V16.75H48.1945V50.25ZM48.1945 11.1666H20.2778V8.37496H48.1945V11.1666ZM45.4028 28.0562L41.4666 24.12L31.5841 34.0025L27.6478 30.0662L23.7116 34.0025L31.5841 41.875L45.4028 28.0562Z" fill="#4E9525"/>
</svg>
