<svg width="68" height="67" viewBox="0 0 68 67" fill="none" xmlns="http://www.w3.org/2000/svg">
<g clip-path="url(#clip0)">
<path d="M33.4674 65.5221C31.1335 65.5221 28.8007 65.0517 26.6405 64.1121L16.3106 59.6216C12.5736 57.996 8.62217 56.9665 4.56647 56.5611L1.17422 56.2218C0.615715 56.1662 0.190903 55.6964 0.190903 55.1354V44.4945C0.190903 44.2584 0.267744 44.0285 0.409556 43.8398C0.663194 43.5006 6.743 35.5579 16.0301 37.6244C21.2535 38.7852 25.4591 40.9573 28.0673 42.5754C29.9609 43.7499 32.1805 44.3702 34.4864 44.3702H44.8162C46.5966 44.3702 48.1616 45.3123 49.0368 46.7254L57.9335 36.4756C59.6583 34.1722 62.4802 32.7616 65.4345 32.7616H66.0993C66.4685 32.7616 66.8121 32.9478 67.0132 33.2564C67.215 33.565 67.2469 33.9554 67.0988 34.2928L59.0524 52.5797C57.2931 56.5792 53.711 59.6003 49.471 60.6605L48.0554 61.0141L39.8202 64.3083C37.7936 65.1185 35.6302 65.5221 33.4674 65.5221ZM2.37494 54.1471L4.78387 54.3883C9.0651 54.8162 13.2364 55.9038 17.1821 57.6193L27.5113 62.1098C31.1435 63.6891 35.3322 63.751 39.01 62.2798L47.3126 58.9587C47.3588 58.9406 47.4056 58.9256 47.4537 58.9138L48.9412 58.5414C52.5315 57.6437 55.5645 55.0861 57.0533 51.7001L64.3925 35.0206C62.5133 35.2973 60.7841 36.31 59.6321 37.8456L49.7765 49.2043C49.7777 49.2468 49.7783 49.2887 49.7783 49.3318C49.7783 52.0674 47.5525 54.2933 44.8168 54.2933H30.4044C28.5309 54.2933 26.6792 54.5938 24.9018 55.186L24.5008 54.1677L24.1616 53.1301L24.2171 53.112C26.2119 52.4473 28.2953 52.1093 30.4044 52.1093H44.8168C46.348 52.1093 47.5949 50.863 47.5949 49.3311C47.5949 47.7993 46.3486 46.553 44.8168 46.553H34.487C31.7738 46.553 29.1562 45.8189 26.9172 44.4302C24.4533 42.9015 20.4813 40.8505 15.5579 39.7554C8.52472 38.1954 3.46383 43.5931 2.37556 44.8806V54.1471H2.37494Z" fill="#4E9525"/>
<path d="M43.1918 32.5148C41.5126 32.5148 39.6297 31.9963 37.5568 30.9599C37.3057 30.8337 37.112 30.615 37.0171 30.3507C36.9327 30.114 34.9817 24.5021 38.0822 20.352C40.3356 17.3353 44.5725 15.9765 50.6823 16.317C51.2395 16.3476 51.6837 16.7942 51.7112 17.3527C51.7331 17.7863 52.1835 28.0199 46.9652 31.4271C45.8557 32.1525 44.595 32.5148 43.1918 32.5148ZM38.9493 29.2075C41.8175 30.5525 44.1102 30.6844 45.772 29.5992C48.8662 27.5782 49.5353 21.579 49.5515 18.4566C44.7643 18.3398 41.5051 19.4187 39.8315 21.6583C37.8398 24.3253 38.6139 27.9937 38.9493 29.2075Z" fill="#4E9525"/>
<path d="M26.4934 18.2092C24.5574 18.2092 22.324 17.7944 20.3749 16.3669C17.0689 13.9442 15.5495 9.33188 15.8581 2.65858C15.8844 2.1007 16.3267 1.65215 16.8846 1.61904C17.3569 1.59218 28.5357 0.995566 32.2971 6.64182C34.0488 9.27003 33.9052 12.7123 31.8717 16.8748C31.748 17.1278 31.5318 17.3233 31.2676 17.4202C31.1208 17.4745 29.071 18.2092 26.4934 18.2092ZM30.8909 16.3956H30.9015H30.8909ZM18.0072 3.76746C17.9129 9.1126 19.1417 12.756 21.665 14.6052C24.6861 16.8186 28.8112 15.8777 30.1081 15.4998C31.5918 12.28 31.7174 9.70921 30.4804 7.85253C28.1814 4.40156 21.4394 3.72686 18.0072 3.76746Z" fill="#4E9525"/>
<path d="M35.0207 46.1694C34.9864 46.1694 34.952 46.1675 34.917 46.1644C34.3354 46.1094 33.9 45.6065 33.9293 45.0224C33.9937 43.738 34.1036 42.5197 34.2529 41.3653C34.7071 33.6387 34.4728 15.6454 23.0966 10.6676C22.5444 10.4258 22.292 9.78235 22.5337 9.22947C22.7749 8.67783 23.4202 8.42607 23.9719 8.66721C30.6758 11.6003 34.8933 18.9027 36.1658 29.7848C36.2802 30.7599 36.3657 31.7214 36.4295 32.6579C39.4256 25.0868 44.0092 22.4118 44.2822 22.2587C44.807 21.962 45.473 22.1506 45.7691 22.6748C46.0633 23.1995 45.8784 23.8636 45.3555 24.1597C45.2399 24.2272 38.2112 28.4453 36.447 41.4533C36.3126 43.6786 36.119 45.0974 36.1009 45.2273C36.0253 45.7721 35.5599 46.1694 35.0207 46.1694Z" fill="#4E9525"/>
</g>
<defs>
<clipPath id="clip0">
<rect width="67" height="67" fill="white" transform="translate(0.190903)"/>
</clipPath>
</defs>
</svg>
