<svg width="67" height="67" viewBox="0 0 67 67" fill="none" xmlns="http://www.w3.org/2000/svg">
<path d="M33.5007 16.4708C36.739 16.4708 39.3632 19.095 39.3632 22.3333C39.3632 25.5716 36.739 28.1958 33.5007 28.1958C30.2624 28.1958 27.6382 25.5716 27.6382 22.3333C27.6382 19.095 30.2624 16.4708 33.5007 16.4708ZM33.5007 41.5958C41.7919 41.5958 50.5299 45.6716 50.5299 47.4583V50.5291H16.4715V47.4583C16.4715 45.6716 25.2094 41.5958 33.5007 41.5958ZM33.5007 11.1666C27.3311 11.1666 22.334 16.1637 22.334 22.3333C22.334 28.5029 27.3311 33.5 33.5007 33.5C39.6703 33.5 44.6674 28.5029 44.6674 22.3333C44.6674 16.1637 39.6703 11.1666 33.5007 11.1666ZM33.5007 36.2916C26.0469 36.2916 11.1674 40.0325 11.1674 47.4583V55.8333H55.834V47.4583C55.834 40.0325 40.9544 36.2916 33.5007 36.2916Z" fill="#4E9525"/>
</svg>
