<svg width="67" height="84" viewBox="0 0 67 84" fill="none" xmlns="http://www.w3.org/2000/svg">
<g clip-path="url(#clip0)">
<path d="M33.2765 82.5221C30.9426 82.5221 28.6098 82.0517 26.4496 81.1121L16.1197 76.6216C12.3826 74.996 8.43127 73.9665 4.37557 73.5611L0.983315 73.2218C0.424812 73.1662 0 72.6964 0 72.1354V61.4945C0 61.2584 0.0768411 61.0285 0.218653 60.8398C0.472291 60.5006 6.5521 52.5579 15.8392 54.6244C21.0626 55.7852 25.2682 57.9573 27.8764 59.5754C29.77 60.7499 31.9896 61.3702 34.2955 61.3702H44.6253C46.4057 61.3702 47.9707 62.3123 48.8459 63.7254L57.7426 53.4756C59.4675 51.1722 62.2893 49.7616 65.2436 49.7616H65.9084C66.2776 49.7616 66.6212 49.9478 66.8223 50.2564C67.0241 50.565 67.056 50.9554 66.9079 51.2928L58.8615 69.5797C57.1022 73.5792 53.5201 76.6003 49.2801 77.6605L47.8645 78.0141L39.6293 81.3083C37.6027 82.1185 35.4393 82.5221 33.2765 82.5221ZM2.18403 71.1471L4.59297 71.3883C8.8742 71.8162 13.0455 72.9038 16.9912 74.6193L27.3204 79.1098C30.9526 80.6891 35.1413 80.751 38.8191 79.2798L47.1217 75.9587C47.1679 75.9406 47.2147 75.9256 47.2628 75.9138L48.7503 75.5414C52.3406 74.6437 55.3736 72.0861 56.8624 68.7001L64.2016 52.0206C62.3224 52.2973 60.5932 53.31 59.4412 54.8456L49.5856 66.2043C49.5868 66.2468 49.5874 66.2887 49.5874 66.3318C49.5874 69.0674 47.3616 71.2933 44.6259 71.2933H30.2135C28.34 71.2933 26.4883 71.5938 24.7109 72.186L24.3099 71.1677L23.9706 70.1301L24.0263 70.112C26.021 69.4473 28.1044 69.1093 30.2135 69.1093H44.6259C46.1571 69.1093 47.404 67.863 47.404 66.3311C47.404 64.7993 46.1577 63.553 44.6259 63.553H34.2961C31.5829 63.553 28.9653 62.8189 26.7263 61.4302C24.2624 59.9015 20.2904 57.8505 15.367 56.7554C8.33381 55.1954 3.27293 60.5931 2.18466 61.8806V71.1471H2.18403Z" fill="#4E9525"/>
<path d="M43.0009 49.5148C41.3216 49.5148 39.4387 48.9963 37.3659 47.9599C37.1147 47.8337 36.9211 47.615 36.8261 47.3507C36.7418 47.114 34.7908 41.5021 37.8913 37.352C40.1446 34.3353 44.3815 32.9765 50.4913 33.317C51.0486 33.3476 51.4927 33.7942 51.5202 34.3527C51.5421 34.7863 51.9925 45.0199 46.7742 48.4271C45.6647 49.1525 44.404 49.5148 43.0009 49.5148ZM38.7584 46.2075C41.6265 47.5525 43.9192 47.6844 45.581 46.5992C48.6752 44.5782 49.3443 38.579 49.3606 35.4566C44.5733 35.3398 41.3141 36.4187 39.6405 38.6583C37.6489 41.3253 38.4229 44.9937 38.7584 46.2075Z" fill="#4E9525"/>
<path d="M26.3026 35.2092C24.3666 35.2092 22.1332 34.7944 20.184 33.3669C16.878 30.9442 15.3587 26.3319 15.6673 19.6586C15.6935 19.1007 16.1358 18.6522 16.6937 18.619C17.166 18.5922 28.3448 17.9956 32.1063 23.6418C33.858 26.27 33.7143 29.7123 31.6808 33.8748C31.5571 34.1278 31.341 34.3233 31.0767 34.4202C30.9299 34.4745 28.8802 35.2092 26.3026 35.2092ZM30.7 33.3956H30.7106H30.7ZM17.8163 20.7675C17.722 26.1126 18.9508 29.756 21.4741 31.6052C24.4952 33.8186 28.6203 32.8777 29.9172 32.4998C31.4009 29.28 31.5265 26.7092 30.2896 24.8525C27.9906 21.4016 21.2486 20.7269 17.8163 20.7675Z" fill="#4E9525"/>
<path d="M34.8297 63.1694C34.7954 63.1694 34.761 63.1675 34.726 63.1644C34.1444 63.1094 33.709 62.6065 33.7383 62.0224C33.8027 60.738 33.9126 59.5197 34.062 58.3653C34.5161 50.6387 34.2819 32.6454 22.9056 27.6676C22.3534 27.4258 22.101 26.7823 22.3428 26.2295C22.5839 25.6778 23.2292 25.4261 23.7809 25.6672C30.4848 28.6003 34.7023 35.9027 35.9749 46.7848C36.0892 47.7599 36.1748 48.7214 36.2385 49.6579C39.2347 42.0868 43.8183 39.4118 44.0913 39.2587C44.616 38.962 45.282 39.1506 45.5781 39.6748C45.8724 40.1995 45.6874 40.8636 45.1645 41.1597C45.049 41.2272 38.0202 45.4453 36.256 58.4533C36.1217 60.6786 35.928 62.0974 35.9099 62.2273C35.8343 62.7721 35.3689 63.1694 34.8297 63.1694Z" fill="#4E9525"/>
</g>
<path d="M53.0716 13.8173H49.6589V10.5374H53.0716C53.5843 10.5374 54 10.1222 54 9.60931C54 9.09637 53.5843 8.68087 53.0716 8.68087H49.6589V4.12995C49.6589 3.46563 49.5276 2.97803 49.2688 2.68101C49.0229 2.39845 48.6995 2.26697 48.2517 2.26697C47.8244 2.26697 47.5133 2.39754 47.2721 2.67834C47.0163 2.97567 46.8865 3.46417 46.8865 4.13025V8.68142H40.4671L37.7376 4.55114C37.504 4.18254 37.2844 3.83726 37.0711 3.50583C36.8791 3.20735 36.6918 2.96433 36.5148 2.78287C36.3582 2.62222 36.1797 2.49789 35.971 2.40233C35.774 2.31241 35.5236 2.26727 35.2273 2.26727C34.8494 2.26727 34.5064 2.37079 34.178 2.58348C33.8529 2.79386 33.6283 3.05395 33.491 3.37868C33.3706 3.68729 33.3068 4.16017 33.3068 4.77058V8.68112H29.9281C29.4154 8.68117 29 9.09668 29 9.60956C29 10.1224 29.4154 10.5377 29.9281 10.5377H33.3069V13.8179H29.9281C29.4154 13.8179 29 14.2333 29 14.7463C29 15.259 29.4154 15.6741 29.9281 15.6741H33.3069V20.8701C33.3069 21.5148 33.4424 21.9975 33.7107 22.3042C33.9658 22.5966 34.2893 22.7324 34.7287 22.7324C35.1525 22.7324 35.4735 22.596 35.7397 22.303C36.0123 22.0029 36.1502 21.5205 36.1502 20.8702V15.6741H41.959L45.1025 20.4943C45.3211 20.813 45.5468 21.1346 45.7718 21.4499C45.9749 21.7331 46.1965 21.9826 46.4302 22.191C46.6407 22.3795 46.8664 22.5177 47.101 22.6019C47.3425 22.6889 47.6248 22.733 47.938 22.733C48.7881 22.733 49.6588 22.4727 49.6588 20.5426V15.6741H53.0715C53.5842 15.6741 53.9999 15.2584 53.9999 14.7457C54 14.233 53.5843 13.8173 53.0716 13.8173ZM46.8864 10.5374V13.8172H43.8618L41.6945 10.5374H46.8864ZM36.1503 6.76877L37.3976 8.68087H36.1503V6.76877ZM36.1503 13.8173V10.5374H38.6087L40.748 13.8173H36.1503ZM46.8864 18.3951L45.0888 15.6741H46.8864V18.3951Z" fill="#4E9525"/>
<defs>
<clipPath id="clip0">
<rect width="67" height="67" fill="white" transform="translate(0 17)"/>
</clipPath>
</defs>
</svg>
