<svg width="63" height="69" viewBox="0 0 63 69" fill="none" xmlns="http://www.w3.org/2000/svg">
<g clip-path="url(#clip0)">
<path d="M60.7118 69H2.25173C1.24699 69 0.432434 68.1998 0.432434 67.2129C0.432434 66.2259 1.24699 65.4258 2.25173 65.4258H60.7118C61.7165 65.4258 62.531 66.2259 62.531 67.2129C62.531 68.1998 61.7165 69 60.7118 69Z" fill="white"/>
<path d="M13.2886 69H6.01137C5.00664 69 4.19208 68.1998 4.19208 67.2129V54.1075C4.19208 52.4652 5.5523 51.129 7.22424 51.129H12.0757C13.7476 51.129 15.1078 52.4652 15.1078 54.1075V67.2129C15.1078 68.1998 14.2933 69 13.2886 69ZM7.83067 65.4258H11.4693V54.7032H7.83067V65.4258ZM12.0757 54.7032H12.0769H12.0757Z" fill="white"/>
<path d="M27.8439 69H20.5667C19.5619 69 18.7474 68.1999 18.7474 67.2129V49.8185C18.7474 48.1762 20.1076 46.84 21.7795 46.84H26.631C28.3029 46.84 29.6631 48.1762 29.6631 49.8185V67.2129C29.6631 68.1999 28.8486 69 27.8439 69ZM22.386 65.4258H26.0246V50.4142H22.386V65.4258ZM26.631 50.4142H26.6322H26.631Z" fill="white"/>
<path d="M42.3974 69H35.1202C34.1155 69 33.3009 68.1998 33.3009 67.2129V43.2658C33.3009 41.6234 34.6611 40.2873 36.3331 40.2873H41.1845C42.8564 40.2873 44.2167 41.6234 44.2167 43.2658V67.2129C44.2167 68.1998 43.4021 69 42.3974 69ZM36.9395 65.4258H40.5781V43.8615H36.9395V65.4258ZM41.1845 43.8615H41.1857H41.1845Z" fill="white"/>
<path d="M56.9526 69H49.6754C48.6707 69 47.8561 68.1998 47.8561 67.2129V31.3518C47.8561 29.7095 49.2164 28.3734 50.8883 28.3734H55.7398C57.4117 28.3734 58.7719 29.7095 58.7719 31.3518V67.2129C58.7719 68.1998 57.9574 69 56.9526 69ZM51.4947 65.4258H55.1333V31.9475H51.4947V65.4258ZM55.7398 31.9475H55.741H55.7398Z" fill="white"/>
<path d="M2.25173 46.4007C1.24699 46.4007 0.432434 45.6005 0.432434 44.6136C0.432434 43.6266 1.24699 42.8265 2.25173 42.8265C12.9499 42.8265 24.598 38.9997 35.0501 32.0511C44.6658 25.6587 52.328 17.2784 56.0718 9.05908C56.4823 8.15814 57.5584 7.7545 58.4755 8.15779C59.3926 8.56084 59.8034 9.61796 59.393 10.5189C55.3801 19.3289 47.2508 28.2561 37.0895 35.0112C26.0417 42.3558 13.6693 46.4007 2.25173 46.4007Z" fill="white"/>
<path d="M60.7103 22.4966C59.9069 22.4966 59.1719 21.97 58.9542 21.1716L56.4459 11.9762L47.0848 14.4402C46.1139 14.6958 45.1167 14.1299 44.8567 13.1766C44.5967 12.2232 45.1725 11.2433 46.1431 10.9879L57.2614 8.06143C58.2323 7.80588 59.2295 8.37179 59.4895 9.32503L62.4687 20.2466C62.7287 21.1999 62.1529 22.1798 61.1823 22.4353C61.0245 22.4767 60.8661 22.4966 60.7103 22.4966Z" fill="white"/>
</g>
<g clip-path="url(#clip1)">
<path d="M25.9557 13.764H22.4816V10.7071H25.9557C26.4777 10.7071 26.9009 10.32 26.9009 9.842C26.9009 9.36392 26.4777 8.97665 25.9557 8.97665H22.4816V4.73498C22.4816 4.1158 22.3479 3.66134 22.0845 3.38451C21.8341 3.12114 21.5049 2.9986 21.049 2.9986C20.6141 2.9986 20.2973 3.1203 20.0517 3.38202C19.7914 3.65914 19.6592 4.11444 19.6592 4.73526V8.97716H13.1241L10.3455 5.12755C10.1077 4.784 9.88409 4.46218 9.66696 4.15327C9.47146 3.87507 9.28079 3.64857 9.10067 3.47945C8.94123 3.32971 8.75953 3.21383 8.54701 3.12476C8.34649 3.04095 8.09155 2.99888 7.78995 2.99888C7.40527 2.99888 7.05607 3.09537 6.7217 3.2936C6.39081 3.48968 6.16208 3.7321 6.02238 4.03476C5.89976 4.3224 5.83489 4.76315 5.83489 5.33208V8.97688H2.39525C1.87333 8.97693 1.45044 9.3642 1.45044 9.84223C1.45044 10.3203 1.87333 10.7073 2.3953 10.7073H5.83494V13.7646H2.3953C1.87333 13.7646 1.45044 14.1517 1.45044 14.6299C1.45044 15.1078 1.87333 15.4947 2.3953 15.4947H5.83494V20.3376C5.83494 20.9385 5.97284 21.3883 6.24598 21.6742C6.50574 21.9467 6.83509 22.0733 7.28234 22.0733C7.71384 22.0733 8.04063 21.9462 8.31161 21.6731C8.58911 21.3934 8.72948 20.9438 8.72948 20.3377V15.4947H14.643L17.8431 19.9873C18.0656 20.2843 18.2953 20.5841 18.5245 20.878C18.7312 21.1419 18.9567 21.3745 19.1947 21.5687C19.409 21.7444 19.6388 21.8732 19.8776 21.9517C20.1235 22.0328 20.4108 22.0739 20.7297 22.0739C21.5951 22.0739 22.4815 21.8313 22.4815 20.0324V15.4947H25.9556C26.4776 15.4947 26.9008 15.1072 26.9008 14.6294C26.9009 14.1515 26.4777 13.764 25.9557 13.764ZM19.6591 10.707V13.764H16.58L14.3737 10.707H19.6591ZM8.72953 7.19449L9.99933 8.97665H8.72953V7.19449ZM8.72953 13.764V10.7071H11.2323L13.4101 13.764H8.72953ZM19.6591 18.0308L17.8292 15.4947H19.6591V18.0308Z" fill="white"/>
</g>
<defs>
<clipPath id="clip0">
<rect width="62.0991" height="61" fill="white" transform="translate(0.432434 8)"/>
</clipPath>
<clipPath id="clip1">
<rect width="25.4505" height="23.3011" fill="white" transform="translate(1.45044 0.88562)"/>
</clipPath>
</defs>
</svg>
