<svg width="64" height="74" viewBox="0 0 64 74" fill="none" xmlns="http://www.w3.org/2000/svg">
<path d="M56.5532 33.3361C52.556 26.9306 47.2678 21.3382 41.925 17.837C42.2574 17.3122 42.4502 16.6932 42.4502 16.0305C42.4502 14.6369 41.5995 13.4357 40.3822 12.9007L42.8896 3.22848C43.1664 2.26481 42.9875 1.37276 42.3976 0.778577C41.8039 0.180831 40.8938 -0.015327 39.9007 0.241461C39.8812 0.246455 39.8616 0.252018 39.8424 0.25801C39.7951 0.272847 35.0942 1.74881 33.533 2.18992C32.528 2.4731 30.764 2.47481 29.7579 2.19291C28.1803 1.75095 23.4298 0.268995 23.3819 0.254016C23.3628 0.248024 23.3433 0.24246 23.324 0.23761C22.3307 -0.0173243 21.4206 0.179404 20.8272 0.777864C20.2338 1.37632 20.0565 2.27623 20.3408 3.24689C20.3443 3.25901 20.3481 3.271 20.3521 3.28298L23.5342 12.9324C22.3552 13.4823 21.5377 14.6641 21.5377 16.0304C21.5377 16.693 21.7304 17.312 22.0631 17.8369C16.7203 21.3381 11.432 26.9305 7.43487 33.3359C3.0413 40.3766 0.621643 47.6241 0.621643 53.7433C0.621643 59.6573 2.40422 64.327 5.91991 67.6225C9.84655 71.3034 15.8824 73.1697 23.86 73.1697H40.128C48.1056 73.1697 54.1415 71.3034 58.0681 67.6225C61.5838 64.3269 63.3664 59.6573 63.3664 53.7433C63.3664 47.6244 60.9467 40.3768 56.5532 33.3361ZM34.3244 17.175C34.324 17.175 34.3237 17.175 34.3232 17.175H29.6652C29.6644 17.175 29.6635 17.175 29.6626 17.175H25.0219C24.3803 17.175 23.8584 16.6615 23.8584 16.0307C23.8584 15.4005 24.3792 14.8877 25.0197 14.8864C25.0204 14.8864 25.0212 14.8865 25.0217 14.8865C25.0229 14.8865 25.0242 14.8863 25.0254 14.8863H30.8284C30.8297 14.8863 30.8309 14.8865 30.8322 14.8865C30.8342 14.8865 30.8363 14.8863 30.8383 14.8863H33.1495C33.1515 14.8863 33.1535 14.8865 33.1555 14.8865C33.1568 14.8865 33.158 14.8863 33.1593 14.8863H38.9659C39.6074 14.8863 40.1293 15.3997 40.1293 16.0305C40.1293 16.6614 39.6073 17.1748 38.9659 17.1748H34.3244V17.175ZM22.5301 2.41147C22.5767 2.41432 22.6376 2.42231 22.7128 2.44014C23.1742 2.58409 27.5635 3.95191 29.1223 4.38845C30.5392 4.78505 32.7577 4.78348 34.1732 4.38403C35.7149 3.94849 40.0555 2.58737 40.5153 2.44299C40.5887 2.42545 40.6486 2.41732 40.6948 2.41432C40.6901 2.46482 40.6787 2.53187 40.6542 2.61519C40.651 2.62646 40.6478 2.63773 40.6449 2.64914L38.0642 12.6037H34.8699L36.5574 8.4547C36.7954 7.86951 36.506 7.20528 35.9109 6.97132C35.3157 6.73735 34.6405 7.02182 34.4024 7.60715L32.3702 12.6037H31.6175L29.5853 7.60715C29.3473 7.02168 28.672 6.73721 28.0769 6.97132C27.4819 7.20542 27.1923 7.86965 27.4304 8.4547L29.1178 12.6037H25.8654L22.5665 2.59964C22.5446 2.52189 22.5343 2.45912 22.5301 2.41147ZM56.4669 65.9705C52.9863 69.233 47.4891 70.8873 40.128 70.8873H23.8599C16.4986 70.8873 11.0015 69.233 7.52103 65.9705C4.48286 63.1224 2.94237 59.0087 2.94237 53.7435C2.94237 48.0401 5.24019 41.2165 9.41269 34.53C13.4087 28.1264 18.7239 22.5899 24.0164 19.3114C24.3349 19.406 24.6725 19.4575 25.0219 19.4575H27.5016L26.3803 21.1117C26.0248 21.6361 26.1688 22.3448 26.7022 22.6943C26.9001 22.824 27.1236 22.8862 27.3448 22.8862C27.7198 22.8862 28.0878 22.7077 28.3114 22.3779L30.2909 19.4577H33.6967L35.6762 22.3779C35.8998 22.7079 36.2677 22.8862 36.6428 22.8862C36.864 22.8862 37.0875 22.824 37.2854 22.6943C37.8186 22.3448 37.9628 21.6361 37.6073 21.1117L36.486 19.4575H38.9657C39.3153 19.4575 39.6528 19.406 39.9714 19.3114C45.2637 22.5899 50.5791 28.1266 54.5749 34.53C58.7474 41.2165 61.0452 48.0399 61.0452 53.7435C61.0455 59.0087 59.5049 63.1224 56.4669 65.9705Z" fill="white"/>
<g clip-path="url(#clip0)">
<path d="M47.0251 45.8181H42.606V41.6412H47.0251C47.6891 41.6412 48.2274 41.1123 48.2274 40.4592C48.2274 39.8059 47.6891 39.2768 47.0251 39.2768H42.606V33.481C42.606 32.635 42.436 32.014 42.1009 31.6358C41.7824 31.2759 41.3637 31.1085 40.7838 31.1085C40.2305 31.1085 39.8276 31.2748 39.5152 31.6324C39.184 32.011 39.0159 32.6331 39.0159 33.4814V39.2775H30.7034L27.169 34.0174C26.8665 33.548 26.5821 33.1083 26.3059 32.6862C26.0572 32.3061 25.8147 31.9966 25.5856 31.7655C25.3827 31.5609 25.1516 31.4026 24.8813 31.2808C24.6262 31.1663 24.302 31.1088 23.9183 31.1088C23.429 31.1088 22.9848 31.2407 22.5595 31.5116C22.1386 31.7795 21.8477 32.1107 21.67 32.5243C21.514 32.9173 21.4315 33.5195 21.4315 34.2969V39.2771H17.0563C16.3924 39.2771 15.8545 39.8063 15.8545 40.4595C15.8545 41.1126 16.3924 41.6415 17.0564 41.6415H21.4316V45.8189H17.0564C16.3924 45.8189 15.8545 46.3479 15.8545 47.0013C15.8545 47.6543 16.3924 48.1829 17.0564 48.1829H21.4316V54.8002C21.4316 55.6212 21.607 56.2359 21.9544 56.6264C22.2848 56.9989 22.7037 57.1718 23.2726 57.1718C23.8215 57.1718 24.2372 56.9981 24.5819 56.625C24.9349 56.2427 25.1134 55.6284 25.1134 54.8002V48.1829H32.6353L36.7058 54.3216C36.9889 54.7273 37.2811 55.1369 37.5726 55.5385C37.8355 55.8992 38.1224 56.2169 38.4251 56.4823C38.6977 56.7224 38.99 56.8983 39.2938 57.0057C39.6065 57.1164 39.972 57.1725 40.3776 57.1725C41.4784 57.1725 42.6059 56.8411 42.6059 54.3831V48.1829H47.025C47.689 48.1829 48.2272 47.6535 48.2272 47.0005C48.2274 46.3475 47.6891 45.8181 47.0251 45.8181ZM39.0159 41.6411V45.818H35.0992L32.2928 41.6411H39.0159ZM25.1135 36.8416L26.7286 39.2768H25.1135V36.8416ZM25.1135 45.8181V41.6412H28.297L31.0672 45.8181H25.1135ZM39.0159 51.6482L36.6882 48.1829H39.0159V51.6482Z" fill="white"/>
</g>
<defs>
<clipPath id="clip0">
<rect width="32.3729" height="31.8383" fill="white" transform="translate(15.8545 28.2214)"/>
</clipPath>
</defs>
</svg>
