<svg width="72" height="72" viewBox="0 0 72 72" fill="none" xmlns="http://www.w3.org/2000/svg">
<path d="M20.1697 7.96855L9.0333 10.2066C8.16326 10.3815 7.83571 11.4636 8.46422 12.0952L9.92463 13.5628C-1.09238 25.1537 -2.79514 43.0518 5.97328 56.5638L7.5676 59.0194C9.19547 61.5235 13.0236 60.7892 13.6345 57.8762C13.8184 56.9986 13.651 56.1015 13.1632 55.3508L11.5695 52.896C4.51928 42.0325 5.85593 27.6696 14.6525 18.3137L16.2596 19.9286C16.8445 20.5161 17.8422 20.2794 18.1037 19.4912L21.4446 9.41981C21.7145 8.60598 21.0076 7.80013 20.1697 7.96855Z" fill="white"/>
<path d="M68.655 43.7096C67.0081 42.871 64.9993 43.5308 64.165 45.1859L62.8463 47.8002C57.0085 59.3674 43.9622 65.3855 31.5 62.4085L32.0883 60.2025C32.3022 59.4005 31.6004 58.6502 30.7893 58.8165L20.4389 60.9448C19.6046 61.1162 19.2599 62.1331 19.8257 62.7799L27.3227 71.3521C27.9065 72.0199 29.0043 71.7675 29.2348 70.9029L29.7694 68.8983C45.2152 72.6773 61.5213 65.2684 68.8054 50.8362L70.1245 48.2211C70.9618 46.5591 70.2943 44.5456 68.655 43.7096Z" fill="white"/>
<path d="M70.2356 24.5671L68.2405 25.1043C63.7593 9.72141 49.182 -0.706919 33.1558 0.165372L30.2426 0.325115C28.3911 0.427507 26.9899 2.01514 27.089 3.85974C27.1899 5.70839 28.771 7.12789 30.6064 7.02886L33.5189 6.86926C46.4083 6.16496 58.1173 14.5103 61.7822 26.8433L59.5868 27.4344C58.7887 27.6493 58.4925 28.6355 59.0418 29.2577L66.0513 37.2008C66.6175 37.8427 67.6657 37.63 67.9394 36.817L71.5788 26.0068C71.8632 25.1619 71.0943 24.3363 70.2356 24.5671Z" fill="white"/>
</svg>
